<svg xmlns="http://www.w3.org/2000/svg" version="1.1" xmlns:xlink="http://www.w3.org/1999/xlink" xmlns:svgjs="http://svgjs.dev/svgjs" viewBox="0 0 1422 800"><defs><filter id="uuunion-blur" x="-100%" y="-100%" width="400%" height="400%" color-interpolation-filters="sRGB">
        <feGaussianBlur in="SourceGraphic" stdDeviation="7.5 0" result="blur"></feGaussianBlur>
        <feDropShadow stdDeviation="12.307692307692308" in="blur" dx="10" dy="10" flood-color="hsl(270, 73%, 53%)" flood-opacity="0.25" x="0%" y="0%" width="100%" height="100%"></feDropShadow>
      </filter><filter id="uuunion-blur2" x="-100%" y="-100%" width="400%" height="400%" color-interpolation-filters="sRGB">
        <feGaussianBlur in="SourceGraphic" stdDeviation="7.5 0" result="blur"></feGaussianBlur>
        <feDropShadow stdDeviation="12.307692307692308" in="blur" dx="-10" dy="-10" flood-color="hsl(270, 73%, 53%)" flood-opacity="0.25" x="0%" y="0%" width="100%" height="100%"></feDropShadow>
      </filter><linearGradient gradientTransform="rotate(0, 0.5, 0.5)" x1="50%" y1="0%" x2="50%" y2="100%" id="uuunion-grad"><stop stop-color="hsl(162, 100%, 58%)" offset="10%"></stop><stop stop-color="hsl(270, 73%, 53%)" offset="90%"></stop></linearGradient><linearGradient gradientTransform="rotate(135, 0.5, 0.5)" x1="50%" y1="0%" x2="50%" y2="100%" id="uuunion-grad2"><stop stop-color="hsl(162, 100%, 58%)" offset="25%"></stop><stop stop-color="hsl(270, 73%, 53%)" offset="100%"></stop></linearGradient><linearGradient gradientTransform="rotate(333, 0.5, 0.5)" x1="50%" y1="0%" x2="50%" y2="100%" id="uuunion-grad3"><stop stop-color="hsl(162, 100%, 58%)" offset="0%"></stop><stop stop-color="hsl(270, 73%, 53%)" offset="75%"></stop></linearGradient></defs><path d="M-131.4 -85.57Q-118.41 -84.02 -105.43 -82.28 -92.44 -80.45 -79.46 -78.59 -66.48 -76.8 -53.49 -75.15 -40.51 -73.71 -27.52 -72.56 -14.54 -71.74 -1.55 -71.28 11.42 -71.22 24.41 -71.54 37.39 -72.25 50.38 -73.3 63.36 -74.64 76.35 -76.23 89.33 -77.98 102.32 -79.83 115.3 -81.68 128.29 -83.46 141.27 -85.08 154.25 -86.47 167.24 -87.58 180.22 -88.35 193.21 -88.74 206.19 -88.75 219.18 -88.36 232.16 -87.6 245.15 -86.51 258.13 -85.12 271.12 -83.5 284.1 -81.73 297.09 -79.88 310.07 -78.03 323.06 -76.27 336.04 -74.68 349.03 -73.33 362.01 -72.27 374.99 -71.56 387.98 -71.22 400.96 -71.28 413.95 -71.72 426.93 -72.53 439.92 -73.68 452.9 -75.11 465.89 -76.75 478.87 -78.55 491.86 -80.4 504.84 -82.24 517.83 -83.97 530.81 -85.53 543.8 -86.85 556.78 -87.85 569.77 -88.51 582.75 -88.79 595.74 -88.67 608.72 -88.17 621.7 -87.3 634.69 -86.11 647.67 -84.64 660.66 -82.97 673.64 -81.16 686.63 -79.3 699.61 -77.48 712.6 -75.76 725.58 -74.24 738.57 -72.97 751.55 -72.01 764.54 -71.41 777.52 -71.2 790.51 -71.37 803.49 -71.93 816.48 -72.85 829.46 -74.09 842.45 -75.59 855.43 -77.29 868.42 -79.11 881.4 -80.97 894.39 -82.79 907.37 -84.48 920.35 -85.97 933.34 -87.19 946.32 -88.09 959.31 -88.64 972.29 -88.79 985.28 -88.56 998.26 -87.94 1011.25 -86.97 1024.23 -85.68 1037.22 -84.15 1050.2 -82.42 1063.19 -80.59 1076.17 -78.74 1089.16 -76.93 1102.14 -75.27 1115.13 -73.82 1128.11 -72.64 1141.1 -71.79 1154.08 -71.3 1167.07 -71.21 1180.05 -71.5 1193.04 -72.18 1206.02 -73.2 1219 -74.53 1231.99 -76.1 1244.97 -77.84 1257.96 -79.68 1270.94 -81.54 1283.93 -83.32 1296.91 -84.96 1309.9 -86.37 1322.88 -87.51 1335.87 -88.3 1348.85 -88.73 1361.84 -88.76 1374.82 -88.41 1387.81 -87.68 1400.79 -86.6 1413.78 -85.24 1426.76 -83.63 1439.75 -81.87 1452.73 -80.02 1465.72 -78.17 1478.7 -76.41 1491.69 -74.8 1504.67 -73.42 1517.66 -72.34 1530.64 -71.6 1533.11 -56.38 1537.79 -41.17 1544.36 -25.95 1552.34 -10.74 1561.17 4.46 1570.22 19.68 1578.83 34.89 1586.4 50.11 1592.39 65.32 1596.36 80.54 1598.04 95.75 1597.31 110.97 1594.22 126.18 1588.98 141.4 1581.98 156.61 1573.71 171.83 1564.76 187.04 1555.77 202.26 1547.38 217.47 1540.19 232.68 1534.71 247.9 1531.34 263.11 1530.31 278.33 1531.69 293.54 1535.39 308.76 1541.15 323.97 1548.55 339.19 1557.07 354.4 1566.1 369.62 1574.98 384.83 1583.1 400.05 1589.88 415.26 1594.82 430.48 1597.57 445.69 1597.95 460.9 1595.91 476.12 1591.62 491.33 1585.37 506.55 1577.61 521.76 1568.89 536.98 1559.84 552.19 1551.1 567.41 1543.29 582.62 1536.98 597.84 1532.6 613.05 1530.48 628.27 1530.76 643.48 1533.43 658.7 1538.29 673.91 1545 689.12 1553.08 704.34 1561.95 719.55 1570.98 734.77 1579.53 749.98 1586.98 765.2 1592.81 780.41 1596.6 795.63 1598.08 810.84 1597.14 826.06 1593.85 841.27 1588.45 856.49 1581.31 871.7 1572.96 886.92 1563.98 902.13 1550.65 900.18 1537.32 897.32 1523.99 893.7 1510.66 889.46 1497.34 884.8 1484.01 879.93 1470.68 875.05 1457.35 870.4 1444.02 866.18 1430.69 862.57 1417.36 859.74 1404.03 857.82 1390.7 856.88 1377.37 856.98 1364.05 858.1 1350.72 860.2 1337.39 863.18 1324.06 866.91 1310.73 871.22 1297.4 875.93 1284.07 880.82 1270.74 885.67 1257.41 890.27 1244.08 894.41 1230.76 897.9 1217.43 900.6 1204.1 902.38 1190.77 903.16 1177.44 902.91 1164.11 901.63 1150.78 899.39 1137.45 896.28 1124.12 892.45 1110.79 888.06 1097.47 883.31 1084.14 878.42 1070.81 873.59 1057.48 869.05 1044.15 865 1030.82 861.62 1017.49 859.05 1004.16 857.42 990.83 856.8 977.5 857.21 964.18 858.64 950.85 861.02 937.52 864.25 924.19 868.18 910.86 872.64 897.53 877.42 884.2 882.32 870.87 887.12 857.54 891.6 844.21 895.56 830.89 898.83 817.56 901.25 804.23 902.73 790.9 903.19 777.57 902.62 764.24 901.04 750.91 898.52 737.58 895.18 724.25 891.15 710.92 886.63 697.6 881.82 684.27 876.92 670.94 872.16 657.61 867.75 644.28 863.88 630.95 860.73 617.62 858.45 604.29 857.12 590.96 856.82 577.64 857.55 564.31 859.28 550.98 861.93 537.65 865.39 524.32 869.5 510.99 874.08 497.66 878.93 484.33 883.82 471 888.54 457.67 892.88 444.35 896.64 431.02 899.67 417.69 901.81 404.36 902.98 391.03 903.13 377.7 902.24 364.37 900.36 351.04 897.58 337.71 894.01 324.39 889.81 311.06 885.18 297.73 880.31 284.4 875.43 271.07 870.76 257.74 866.49 244.41 862.83 231.08 859.94 217.75 857.93 204.43 856.92 191.1 856.93 177.77 857.97 164.44 860 151.11 862.91 137.78 866.59 124.45 870.87 111.12 875.55 97.79 880.43 84.47 885.3 71.14 889.92 57.81 894.1 44.48 897.66 31.15 900.42 17.82 902.28 4.49 903.14 -8.83 902.96 -22.16 901.77 -35.49 899.6 -48.81 896.56 -62.14 892.78 -75.47 888.42 -88.8 883.7 -102.13 878.8 -115.46 873.96 -128.79 869.39 -142.12 865.3 -145 850.44 -147.69 835.58 -149.98 820.72 -151.72 805.87 -152.77 791.01 -153.08 776.15 -152.6 761.29 -151.38 746.44 -149.51 731.58 -147.11 716.72 -144.37 701.86 -141.46 687.01 -138.61 672.15 -136.01 657.29 -133.86 642.43 -132.29 627.58 -131.44 612.72 -131.35 597.86 -132.03 583 -133.43 568.15 -135.47 553.29 -137.98 538.43 -140.79 523.57 -143.7 508.72 -146.5 493.86 -148.99 479 -151 464.14 -152.38 449.29 -153.03 434.43 -152.91 419.57 -152.03 404.71 -150.44 389.86 -148.26 375 -145.65 360.14 -142.8 345.29 -139.89 330.43 -137.16 315.57 -134.78 300.71 -132.93 285.86 -131.74 271 -131.29 256.14 -131.62 241.28 -132.71 226.43 -134.47 211.57 -136.78 196.71 -139.48 181.85 -142.37 167 -145.24 152.14 -147.9 137.28 -150.15 122.42 -151.84 107.57 -152.83 92.71 -153.07 77.85 -152.53 62.99 -151.25 48.14 -149.32 33.28 -146.89 18.42 -144.12 3.56 -141.21 -11.28 -138.38 -26.14 -135.81 -41 -133.7 -55.86 -132.19 -70.71 -131.4 -85.57" fill="url(#uuunion-grad)"></path><path d="M-131.41 -85.57Q-132.2 -70.71 -133.71 -55.86 -135.82 -41 -138.39 -26.14 -141.22 -11.28 -144.13 3.56 -146.9 18.42 -149.33 33.28 -151.26 48.14 -152.54 62.99 -153.08 77.85 -152.84 92.71 -151.85 107.56 -150.16 122.42 -147.91 137.28 -145.25 152.14 -142.38 166.99 -139.49 181.85 -136.79 196.71 -134.48 211.57 -132.72 226.42 -131.63 241.28 -131.3 256.14 -131.75 271 -132.94 285.85 -134.79 300.71 -137.17 315.57 -139.9 330.43 -142.81 345.28 -145.66 360.14 -148.27 375 -150.45 389.86 -141.39 391.7 -132.32 393.7 -123.26 395.83 -114.19 398.05 -105.13 400.3 -96.06 402.55 -87 404.74 -77.94 406.84 -68.87 408.81 -59.81 410.6 -50.74 412.18 -41.68 413.51 -32.62 414.58 -23.55 415.36 -6.42 415.95 -3.39 415.99 8.17 412.48 19.73 408.49 31.28 404.06 42.83 399.22 54.35 394.02 65.86 388.54 77.35 382.85 88.81 377.03 100.26 371.16 111.67 365.33 123.07 359.62 134.43 354.11 145.76 348.88 157.06 343.98 168.33 339.47 179.57 335.39 190.77 331.77 201.94 328.62 213.08 325.93 224.19 323.69 235.26 321.88 246.3 320.44 257.31 319.32 268.29 318.46 279.24 317.79 290.17 317.23 301.06 316.7 311.94 316.13 322.79 315.42 333.62 314.51 344.43 313.33 355.22 311.82 366 309.94 376.77 307.65 387.53 304.92 398.28 301.75 409.03 298.14 419.78 294.11 430.53 289.69 441.29 284.92 452.05 279.85 462.82 274.55 473.61 269.09 484.41 263.53 495.23 257.96 506.07 252.45 516.94 247.07 527.83 241.89 538.75 236.98 549.7 232.39 560.69 228.15 571.71 224.31 582.76 220.88 593.86 217.87 604.99 215.27 616.17 213.06 627.39 211.21 638.65 209.69 649.96 208.43 661.32 207.38 672.72 206.47 684.16 205.64 695.65 204.81 707.18 203.91 718.76 202.87 730.39 201.64 742.05 200.15 753.76 198.35 765.51 196.2 777.29 193.69 789.11 190.79 800.97 187.49 812.86 183.81 824.77 179.77 836.71 175.39 848.68 170.72 860.67 165.81 872.67 160.71 884.69 155.49 896.72 150.22 908.75 144.95 920.79 139.76 932.83 134.71 944.86 129.85 956.88 125.25 968.89 120.93 980.88 116.95 992.85 113.31 1004.8 110.04 1016.71 107.14 1028.59 104.59 1040.44 102.38 1052.24 100.47 1063.99 98.82 1075.7 97.4 1087.36 96.13 1098.95 94.97 1110.49 93.86 1121.97 92.72 1133.38 91.5 1144.72 90.14 1155.98 88.59 1167.18 86.8 1178.3 84.73 1189.34 82.36 1200.3 79.65 1211.18 76.6 1221.98 73.21 1232.7 69.5 1243.34 65.48 1253.89 61.18 1264.36 56.64 1274.74 51.91 1285.05 47.04 1295.28 42.08 1305.42 37.09 1315.49 32.14 1325.49 27.26 1335.41 22.53 1345.26 17.98 1355.05 13.66 1364.77 9.61 1374.43 5.84 1384.04 2.39 1393.59 -0.75 1403.1 -3.58 1412.57 -6.11 1422 -8.36 1412.72 -25.64 1404.35 -42.92 1397.68 -60.2 1393.37 -77.48 1391.83 -94.76 1393.22 -112.04 1397.39 -129.32 1403.94 -146.6 1391.82 -147.32 1379.7 -147.75 1367.59 -147.89 1355.47 -147.74 1343.35 -147.28 1331.23 -146.55 1319.11 -145.57 1306.99 -144.37 1294.87 -143.01 1282.75 -141.54 1270.63 -140.01 1258.51 -138.47 1246.39 -136.99 1234.28 -135.63 1222.16 -134.44 1210.04 -133.45 1197.92 -132.72 1185.8 -132.26 1173.68 -132.1 1161.56 -132.23 1149.44 -132.67 1137.32 -133.38 1125.2 -134.34 1113.09 -135.52 1100.97 -136.87 1088.85 -138.34 1076.73 -139.87 1064.61 -141.41 1052.49 -142.89 1040.37 -144.26 1028.25 -145.47 1016.13 -146.47 1004.01 -147.23 991.89 -147.71 979.78 -147.89 967.66 -147.78 955.54 -147.37 943.42 -146.68 931.3 -145.73 919.18 -144.56 907.06 -143.23 894.94 -141.76 882.82 -140.24 870.7 -138.7 858.58 -137.21 846.47 -135.83 834.35 -134.6 822.23 -133.58 810.11 -132.81 797.99 -132.31 785.87 -132.1 773.75 -132.19 761.63 -132.58 749.51 -133.25 737.39 -134.18 725.27 -135.33 713.16 -136.66 701.04 -138.11 688.92 -139.64 676.8 -141.18 664.68 -142.67 652.56 -144.06 640.44 -145.3 628.32 -146.34 616.2 -147.13 604.08 -147.65 591.97 -147.88 579.85 -147.81 567.73 -147.45 555.61 -146.8 543.49 -145.89 531.37 -144.75 519.25 -143.44 507.13 -141.99 495.01 -140.47 482.89 -138.93 470.77 -137.43 458.66 -136.02 446.54 -134.77 434.42 -133.72 422.3 -132.91 410.18 -132.37 398.06 -132.11 385.94 -132.16 373.82 -132.51 361.7 -133.14 349.58 -134.03 337.46 -135.15 325.35 -136.45 313.23 -137.89 301.11 -139.41 288.99 -140.95 276.87 -142.45 264.75 -143.87 252.63 -145.13 240.51 -146.2 228.39 -147.03 216.27 -147.59 204.15 -147.87 192.04 -147.84 179.92 -147.52 167.8 -146.91 155.68 -146.04 143.56 -144.93 131.44 -143.64 119.32 -142.21 107.2 -140.7 95.08 -139.16 82.96 -137.65 70.84 -136.23 58.73 -134.95 46.61 -133.86 34.49 -133.01 22.37 -132.43 10.25 -132.13 -1.86 -132.13 -13.98 -132.44 -26.1 -133.02 -38.22 -133.88 -50.34 -134.97 -62.45 -136.25 -74.57 -137.67 -86.69 -139.18 -98.81 -140.72 -110.93 -142.23 -123.05 -143.66 -138.72 -137.96 -137.89 -115.87 -134.26 -100.73 -131.41 -85.57" fill="url(#uuunion-grad2)" filter="url(#uuunion-blur)"></path><path d="M1405.75 307.62Q1414.51 308.88 1423.27 310.37 1432.03 312.04 1440.79 313.88 1449.55 315.83 1458.32 317.87 1467.08 319.95 1475.84 322.03 1484.6 324.07 1493.36 326.03 1502.13 327.87 1510.89 329.56 1519.65 331.05 1528.41 332.32 1537.17 333.35 1545.93 334.12 1555.6 351.87 1566.1 369.62 1576.41 387.37 1585.54 405.12 1592.6 422.87 1596.91 440.62 1598.05 458.37 1595.91 476.12 1590.7 493.87 1582.93 511.62 1573.33 529.37 1562.86 547.12 1552.51 564.87 1543.29 582.62 1536.1 600.37 1531.63 618.12 1530.32 635.87 1532.28 653.62 1537.34 671.37 1545 689.12 1554.52 706.88 1564.97 724.63 1575.35 742.38 1584.65 760.13 1591.97 777.88 1596.6 795.63 1598.09 813.38 1596.29 831.13 1591.39 848.88 1583.85 866.63 1574.41 884.38 1563.98 902.13 1551.75 900.37 1539.53 897.85 1527.3 894.66 1515.08 890.92 1502.85 886.77 1490.62 882.36 1478.4 877.86 1466.17 873.45 1453.95 869.28 1441.72 865.51 1429.49 862.29 1417.27 859.73 1405.04 857.93 1392.82 856.96 1380.59 856.86 1368.36 857.62 1356.14 859.23 1343.91 861.62 1331.68 864.69 1319.46 868.34 1307.23 872.43 1295.01 876.8 1282.78 881.29 1270.55 885.74 1258.33 889.97 1246.1 893.82 1233.88 897.15 1221.65 899.84 1209.42 901.79 1197.2 902.91 1184.97 903.18 1172.75 902.57 1160.52 901.12 1148.29 898.87 1136.07 895.92 1123.84 892.36 1111.62 888.35 1099.39 884.01 1087.16 879.53 1074.94 875.07 1062.71 870.79 1050.48 866.85 1038.26 863.41 1026.03 860.59 1013.81 858.5 1001.58 857.22 989.35 856.8 977.13 857.24 964.9 858.54 952.68 860.64 940.45 863.47 928.22 866.93 916 870.87 903.77 875.16 891.55 879.62 879.32 884.1 867.09 888.43 854.87 892.44 842.64 895.98 830.41 898.93 818.19 901.16 805.96 902.59 793.74 903.18 781.51 902.9 769.28 901.76 757.06 899.8 744.83 897.09 732.61 893.75 720.38 889.88 708.15 885.65 695.93 881.2 683.7 876.71 671.48 872.34 659.25 868.26 647.02 864.62 634.8 861.56 622.57 859.19 610.35 857.6 598.12 856.85 585.89 856.97 573.67 857.96 561.44 859.77 549.21 862.34 536.99 865.58 524.76 869.36 512.54 873.53 500.31 877.95 488.08 882.45 475.86 886.85 463.63 891 451.41 894.73 439.18 897.91 426.95 900.42 414.73 902.16 402.5 903.06 390.28 903.11 378.05 902.28 365.82 900.61 353.6 898.18 341.37 895.06 329.15 891.37 316.92 887.25 304.69 882.87 292.47 878.37 280.24 873.94 268.01 869.73 255.79 865.91 243.56 862.62 231.34 859.98 219.11 858.09 206.88 857.03 194.66 856.83 182.43 857.49 170.21 859.01 157.98 861.31 145.75 864.31 133.53 867.9 121.3 871.95 109.08 876.29 96.85 880.78 84.62 885.24 72.4 889.5 60.17 893.4 47.94 896.8 35.72 899.57 23.49 901.61 4.51 897.93 -3.47 882.89 -4.63 872.74 -5.67 862.59 -6.57 852.44 -7.29 842.29 -7.7 827.07 -7.08 822 5.66 815.22 18.51 807.61 31.42 799.23 44.4 790.16 57.43 780.52 70.49 770.45 83.57 760.11 96.66 749.64 109.73 739.23 122.79 729.03 135.82 719.2 148.8 709.87 161.73 701.16 174.59 693.16 187.39 685.93 200.12 679.51 212.78 673.88 225.35 669.03 237.86 664.89 250.29 661.36 262.65 658.35 274.96 655.71 287.21 653.3 299.41 650.97 311.58 648.57 323.73 645.94 335.86 642.95 348 639.46 360.15 635.39 372.32 630.64 384.53 625.17 396.79 618.95 409.11 611.99 421.5 604.33 433.97 596.02 446.52 587.15 459.17 577.84 471.91 568.19 484.75 558.37 497.69 548.49 510.73 538.71 523.85 529.16 537.07 519.98 550.36 511.26 563.72 503.11 577.13 495.59 590.59 488.74 604.08 482.58 617.59 477.1 631.09 472.27 644.56 468.01 658 464.25 671.39 460.88 684.7 457.79 697.91 454.85 711.02 451.93 724.01 448.89 736.85 445.61 749.55 441.99 762.08 437.91 774.45 433.31 786.64 428.12 798.65 422.3 810.48 415.86 820.18 414.08 829.87 411.93 839.55 409.45 849.22 406.66 858.87 403.59 868.51 400.29 878.13 396.82 887.74 393.22 897.34 389.54 906.92 385.85 916.49 382.21 926.05 378.67 935.59 375.29 945.11 372.11 954.63 369.18 964.13 366.54 973.61 364.22 983.08 362.25 992.53 360.65 1001.98 359.41 1011.4 358.55 1020.82 358.04 1030.21 357.88 1039.6 358.03 1048.97 358.46 1058.33 359.13 1067.67 360 1077 361 1086.31 362.1 1095.62 363.23 1104.91 364.34 1114.18 365.36 1123.45 366.26 1132.7 366.97 1141.93 367.45 1151.16 367.66 1160.37 367.57 1169.58 367.15 1178.77 366.38 1187.95 365.24 1197.12 363.75 1206.27 361.9 1215.42 359.71 1224.56 357.2 1233.69 354.4 1242.8 351.36 1251.91 348.11 1261.01 344.7 1270.1 341.19 1279.19 337.63 1288.26 334.06 1297.33 330.56 1306.4 327.16 1315.45 323.93 1324.5 320.9 1333.54 318.13 1342.58 315.64 1351.62 313.46 1360.65 311.62 1369.67 310.13 1378.69 308.99 1387.71 308.2 1396.73 307.75 1405.75 307.62" fill="url(#uuunion-grad3)" filter="url(#uuunion-blur2)"></path></svg>