<svg width="110" height="34" viewBox="0 0 110 34" xmlns="http://www.w3.org/2000/svg"><path d="M109.088 27.572c0 4.274-2.541 6.428-6.811 6.428-2.38 0-4.074-.685-4.074-.685l.456-4.699s1.01.588 2.28.588c1.597 0 2.51-.88 2.51-2.97v-2.641c-.456 1.663-1.988 2.61-4.627 2.61-3.683 0-5.345-1.86-5.345-4.862 0-1.044.195-3.1.195-3.947 0-1.339-.456-1.86-1.336-1.86-.391 0-.619.098-.619.098v-4.176s1.238-.522 3.031-.522c3.423 0 4.53 1.924 4.53 4.764 0 .848-.098 2.414-.098 3.164 0 1.664.456 2.545 2.12 2.545 1.563 0 2.15-.751 2.15-2.186v-7.964h5.638zm-19.44-11.486s-1.272-.23-2.183-.23c-2.086 0-2.575 1.143-2.575 2.84v7.179h-5.638V11.257h5.638v2.447c.684-2.056 2.053-2.773 4.758-2.773zM76.907 24.08s-1.532 2.12-4.366 2.12c-4.628 0-7.529-5.58-7.529-13.868C65.011 5.122 67.194 0 72.214 0c3.063 0 4.693 1.893 4.693 6.232 0 5.613-2.738 10.083-4.824 12.726.587 1.305 1.304 2.023 2.151 2.023.685 0 1.272-.49 1.272-.49zm-5.671-7.929s2.053-3.622 2.053-8.842c0-1.762-.227-2.48-1.01-2.48-1.174 0-1.63 1.565-1.63 4.992 0 4.079.587 6.33.587 6.33m-8.08 7.375S60.385 26.2 55.04 26.2c-5.05 0-8.473-2.38-8.473-7.7 0-5.189 3.26-7.57 8.8-7.57 4.431 0 7.659 1.534 7.659 4.764 0 3.263-3.292 4.242-6.355 4.242-2.477 0-3.813-.62-3.813-.62.293 1.99 1.499 2.48 3.455 2.48 3.618 0 5.964-1.697 5.964-1.697zM52.824 17.49s.424.13 1.076.13c1.401 0 2.64-.652 2.64-1.534 0-.522-.425-.913-1.467-.913-1.337 0-2.087.652-2.25 2.317m-7.202-6.233-4.725 14.618H33.11l-4.53-14.618h6.093l2.607 9.92 2.541-9.92zM22.714 25.875l-.652-1.925c-.587 1.598-1.857 2.251-4.497 2.251-3.553 0-5.67-1.174-5.67-4.503 0-3.752 2.639-4.306 5.898-4.306 2.478 0 3.585.327 4.042 1.24v-1.208c0-1.468-1.467-1.957-3.748-1.957-3.063 0-4.855.881-4.855.881v-4.08s2.378-1.305 6.517-1.305c4.79 0 7.658 1.762 7.658 5.58v9.332zm-.88-5.613s-.716-.326-2.053-.326c-1.662 0-1.922.49-1.922 1.338 0 1.273.619 1.598 1.988 1.598 1.596 0 1.988-.456 1.988-.456zm-11.438-4.176s-1.271-.23-2.183-.23c-2.086 0-2.575 1.143-2.575 2.84v7.179H0V11.257h5.638v2.447c.684-2.056 2.053-2.773 4.758-2.773z" fill="#000"/></svg>