<svg xmlns="http://www.w3.org/2000/svg" version="1.1" xmlns:xlink="http://www.w3.org/1999/xlink" xmlns:svgjs="http://svgjs.dev/svgjs" viewBox="0 0 800 800"><defs><filter id="ssspot-filter" x="-20%" y="-20%" width="140%" height="140%" filterUnits="objectBoundingBox" primitiveUnits="userSpaceOnUse" color-interpolation-filters="sRGB">
	<feTurbulence type="turbulence" baseFrequency="0.022 0.218" numOctaves="2" seed="141" stitchTiles="stitch" x="0%" y="0%" width="100%" height="100%" result="turbulence"></feTurbulence>
	<feGaussianBlur stdDeviation="0 3" x="0%" y="0%" width="100%" height="100%" in="turbulence" edgeMode="duplicate" result="blur"></feGaussianBlur>
	<feDisplacementMap in="SourceGraphic" in2="blur" scale="32" xChannelSelector="R" yChannelSelector="B" x="0%" y="0%" width="100%" height="100%" result="displacementMap"></feDisplacementMap>
</filter></defs><rect width="100%" height="100%" fill="hsl(0, 0%, 99%)"></rect><g fill="#cf85dc" filter="url(#ssspot-filter)"><circle r="5.252121120420239" cx="746.0044096741166" cy="642.6920953396657" opacity="0.37648000588920894"></circle><circle r="9.970986699630583" cx="251.65838910801972" cy="564.5130483292683" opacity="0.43066810444158987"></circle><circle r="6.700853410029197" cx="195.09330294204554" cy="355.4449518906025" opacity="0.6578747179134302"></circle><circle r="4.601274775127801" cx="268.7875736499922" cy="45.31837414876101" opacity="0.624588691777692"></circle><circle r="5.948213620387275" cx="509.9034747985432" cy="289.0025156389919" opacity="0.6078436935919767"></circle><circle r="4.6420357870809905" cx="173.61069950043807" cy="701.3892619659324" opacity="0.2594080441686297"></circle><circle r="7.1797673894277025" cx="63.26198058321831" cy="743.9694834391915" opacity="0.20248863603598022"></circle><circle r="9.96836608609604" cx="156.89233492501492" cy="510.3815439790175" opacity="0.18314309990297212"></circle><circle r="10.908533336331502" cx="587.5997027945194" cy="25.79109811958894" opacity="0.8725750344453638"></circle><circle r="6.003715079885351" cx="402.8795412812907" cy="54.81846042023434" opacity="0.8822309860042901"></circle><circle r="3.7043241470375676" cx="224.56709333938275" cy="95.91023896191555" opacity="0.19587803674150153"></circle><circle r="5.175967708501271" cx="185.87246616686988" cy="611.130462216432" opacity="0.45973547179536867"></circle><circle r="5.532465161244643" cx="318.8272053594023" cy="102.80233909439009" opacity="0.9860331545211698"></circle><circle r="9.103271741248033" cx="704.5502163868334" cy="273.25304709178715" opacity="0.838063028679366"></circle><circle r="6.878811630210524" cx="561.0157534395754" cy="500.71795824834226" opacity="0.3416933108640098"></circle><circle r="4.1327657117391405" cx="383.00513392940644" cy="412.2206694912249" opacity="0.8620232451188317"></circle><circle r="5.788131850307934" cx="583.579149781839" cy="231.52766772240093" opacity="0.7967258018862406"></circle><circle r="5.872608360948725" cx="781.8201032916156" cy="340.8537256200835" opacity="0.8948776481724864"></circle><circle r="7.987120078946844" cx="619.6517985144322" cy="542.719339136448" opacity="0.19105624508121904"></circle><circle r="8.583484010428386" cx="437.7961248761366" cy="163.75054004813572" opacity="0.11810059165328766"></circle><circle r="7.781301827261084" cx="498.6580714939624" cy="103.59786119374107" opacity="0.34309871631927713"></circle><circle r="5.122094780625932" cx="365.9825636986851" cy="619.3832529714805" opacity="0.49842731344620983"></circle><circle r="5.707742089628931" cx="163.5308837648496" cy="20.07330490259472" opacity="0.5257202055583644"></circle><circle r="7.020965780218288" cx="500.13637955250715" cy="251.253299862511" opacity="0.48844145005124306"></circle><circle r="6.088363850554227" cx="737.8503407434413" cy="333.92667139277484" opacity="0.35220407397551023"></circle><circle r="8.335113652184644" cx="312.25913217641084" cy="746.2400795086427" opacity="0.9126008466621823"></circle><circle r="8.094119251960878" cx="348.38288314523925" cy="415.96380754602137" opacity="0.18470899603881108"></circle><circle r="6.634010346223338" cx="689.5364009609287" cy="505.6764570466472" opacity="0.9514293993282211"></circle><circle r="5.269568440780817" cx="20.08758329677447" cy="646.3440722508846" opacity="0.35481542216016104"></circle><circle r="5.747330449184508" cx="218.86648355270725" cy="11.622801476527071" opacity="0.7490026926568041"></circle><circle r="9.201561987662677" cx="17.357284607333312" cy="435.86430987092945" opacity="0.7695771988018288"></circle><circle r="7.567088539437643" cx="477.173694409558" cy="417.48938845769266" opacity="0.9786761739040887"></circle><circle r="8.529078088336975" cx="144.2571724377912" cy="162.0622768280172" opacity="0.7158220900767359"></circle><circle r="5.150651438366439" cx="175.58666035674992" cy="196.32416742042872" opacity="0.4581179017860012"></circle><circle r="7.698715132751904" cx="781.4911438138271" cy="251.4544523146403" opacity="0.1534273147475737"></circle><circle r="7.154553382984407" cx="591.2826334383413" cy="419.95521625805213" opacity="0.5081773133411724"></circle><circle r="7.689536049192517" cx="337.45067121016746" cy="781.0322110181471" opacity="0.31145298781221253"></circle><circle r="6.4089662169585635" cx="381.5931259657519" cy="322.94912177167186" opacity="0.8350468278730289"></circle><circle r="4.180007140580382" cx="592.6446692685694" cy="451.8703657966017" opacity="0.36006381063514203"></circle><circle r="4.9693015242267995" cx="329.25849877797447" cy="42.68962417553533" opacity="0.5755986079102461"></circle><circle r="7.7003005010002195" cx="239.29214149531958" cy="414.69618017731756" opacity="0.19190164123632328"></circle><circle r="6.340597661205738" cx="167.03450034121533" cy="647.5911275627411" opacity="0.1683212393825434"></circle><circle r="2.5135262852784326" cx="695.064023010808" cy="775.9356696570275" opacity="0.45717486073370384"></circle><circle r="5.846716172996535" cx="744.1727566128291" cy="266.2405978407832" opacity="0.5664423049212789"></circle><circle r="8.905667337704305" cx="651.8639591466448" cy="85.0528874035738" opacity="0.5102590680360245"></circle><circle r="6.194199827976302" cx="156.1397820293695" cy="557.2375138370433" opacity="0.7713030681306595"></circle><circle r="5.1746479596849095" cx="408.7493852868354" cy="151.4669471306748" opacity="0.4419045495511611"></circle><circle r="11.502796009716114" cx="114.26326087472547" cy="599.8259128158547" opacity="0.6750251071771315"></circle><circle r="5.932542035791469" cx="160.65769147916862" cy="739.0046525036374" opacity="0.8824643028051288"></circle><circle r="7.166201530512602" cx="567.8080750799808" cy="774.2492487905682" opacity="0.535993686295948"></circle><circle r="7.908377655876137" cx="561.5785449315622" cy="439.85773685444053" opacity="0.7014509672357269"></circle><circle r="8.791689794662235" cx="607.2055780212471" cy="71.53454210395176" opacity="0.10467785718353895"></circle><circle r="6.014865417099396" cx="526.4525559094471" cy="654.7821401479458" opacity="0.9953562665466681"></circle><circle r="5.635841792699566" cx="721.6733054734381" cy="52.73055157730921" opacity="0.7587819394450341"></circle><circle r="8.64619729381339" cx="265.14067746686686" cy="503.5505411075151" opacity="0.7007948381904856"></circle><circle r="9.24160579208915" cx="637.4644940491779" cy="740.2550555328276" opacity="0.10345541699542309"></circle><circle r="4.6827831599513345" cx="90.23440016600557" cy="367.9795679982582" opacity="0.962083910755782"></circle><circle r="6.370037750437435" cx="159.9634952337205" cy="388.3019329430524" opacity="0.18467616361990472"></circle><circle r="7.32292050460626" cx="20.71716012845039" cy="346.3432260082526" opacity="0.36885604126078964"></circle><circle r="7.196505419241873" cx="417.9340473917257" cy="298.88276658939077" opacity="0.39564647579650414"></circle><circle r="3.6334290015216175" cx="659.1358805863857" cy="548.6173240133639" opacity="0.7354754735167666"></circle><circle r="9.576882738294778" cx="375.19394999062615" cy="694.16835655887" opacity="0.2685514602434367"></circle><circle r="9.904701955572415" cx="606.0540768343799" cy="655.0226752257115" opacity="0.45686916891391094"></circle><circle r="7.59246919455266" cx="492.4065443663891" cy="322.27644555727494" opacity="0.5629868881794419"></circle><circle r="6.993974437022379" cx="424.3624749611523" cy="619.0802859988288" opacity="0.9913593550785575"></circle><circle r="8.072561492851012" cx="574.6534228217633" cy="315.03070353132966" opacity="0.7234795347346041"></circle><circle r="6.632919230589895" cx="561.0272779219354" cy="83.93488710958316" opacity="0.9214222230465046"></circle><circle r="6.5903252618733035" cx="626.179253046081" cy="435.4894842030992" opacity="0.5992583297431309"></circle><circle r="9.10804711731737" cx="411.4122894996004" cy="19.799764636100704" opacity="0.7281110725607832"></circle><circle r="6.548144303086242" cx="271.09348028602165" cy="185.35042782209058" opacity="0.23925150398577175"></circle><circle r="7.828912498312777" cx="414.97586258193945" cy="412.7817868311212" opacity="0.37266975801275015"></circle><circle r="4.837127935498124" cx="443.8018172763642" cy="122.26167920103738" opacity="0.4933844342354078"></circle><circle r="8.040473113063902" cx="81.02096794143779" cy="779.0600843270589" opacity="0.9032143886171305"></circle><circle r="4.257044530856451" cx="339.47264037463236" cy="76.36901074953656" opacity="0.8775285216147205"></circle><circle r="5.256071933501337" cx="738.8330943464333" cy="501.6069739425332" opacity="0.9322937079131894"></circle><circle r="9.77163131620917" cx="372.0078236656033" cy="160.1580173143194" opacity="0.7474769806484519"></circle><circle r="4.793312648104341" cx="219.82649920008487" cy="237.13784560144873" opacity="0.3384245284988242"></circle><circle r="5.8471948041626565" cx="540.6685950796009" cy="231.34361163930822" opacity="0.39440115092549344"></circle><circle r="4.865018267683178" cx="230.63524799849293" cy="708.3240507457855" opacity="0.7320641885013547"></circle><circle r="4.111616199585272" cx="326.4861753821322" cy="714.4604847813487" opacity="0.3695851745321157"></circle><circle r="6.913434310650911" cx="43.57533040205085" cy="58.51338719652924" opacity="0.15245284752700425"></circle><circle r="7.850166894474437" cx="19.746745135040044" cy="132.21625271259765" opacity="0.750175907285092"></circle><circle r="6.594378907947285" cx="490.50999308890147" cy="59.9382037673365" opacity="0.49675929035443855"></circle><circle r="6.995116435164946" cx="776.2640000283631" cy="460.5787841768125" opacity="0.17207967186611517"></circle><circle r="5.957329787935502" cx="462.78701184557946" cy="244.80777982212712" opacity="0.42794057528786444"></circle><circle r="9.940385104873588" cx="296.9687035940933" cy="529.4480498901546" opacity="0.4537716731353433"></circle><circle r="11.805416206906767" cx="252.04429088376327" cy="622.1063803035693" opacity="0.3322548960636307"></circle><circle r="10.637032507227033" cx="88.22202118572058" cy="665.9451304113699" opacity="0.8422365278745412"></circle><circle r="9.997373346592752" cx="535.9285727134452" cy="127.81771954853433" opacity="0.6422247834763581"></circle><circle r="9.260147045784446" cx="136.40554931660154" cy="424.8483350790783" opacity="0.693510612724798"></circle><circle r="6.195503996428609" cx="643.4665003872763" cy="584.767254743572" opacity="0.812093410788752"></circle><circle r="9.604038893566655" cx="604.1895315130919" cy="769.7603131409708" opacity="0.50976864856898"></circle><circle r="10.627644009062205" cx="541.387974308047" cy="338.286376413564" opacity="0.45082015557474997"></circle><circle r="7.686731354954047" cx="237.33561439968886" cy="666.9132269590225" opacity="0.44540487740929424"></circle><circle r="10.138524409329584" cx="340.75076808354" cy="482.3566967412304" opacity="0.27624923552063896"></circle><circle r="9.986824561193625" cx="283.9196426537541" cy="258.9888858575801" opacity="0.69353910814847"></circle><circle r="6.910449719615441" cx="316.74740806573374" cy="404.54256884909785" opacity="0.123733980007456"></circle><circle r="7.213931978476671" cx="444.7256834626385" cy="581.9654659402005" opacity="0.4688654789156995"></circle><circle r="6.159426590832385" cx="74.45989174201587" cy="285.3429928160745" opacity="0.611946306476642"></circle><circle r="5.038034767147273" cx="603.0941847170326" cy="512.7440114142047" opacity="0.39099498040721203"></circle><circle r="8.398175150353644" cx="414.80906340028116" cy="347.6083722810887" opacity="0.5175813417098087"></circle><circle r="6.1458043492841075" cx="113.63053880248174" cy="737.5515183298866" opacity="0.4525726458759486"></circle><circle r="8.366556584337816" cx="588.7117665876544" cy="129.71645955239515" opacity="0.4238360139014903"></circle><circle r="7.83789828652967" cx="172.19017456280235" cy="232.77288913229887" opacity="0.9649537372921804"></circle><circle r="8.46886808438254" cx="670.8065638142047" cy="720.7500469973603" opacity="0.3253889332866182"></circle><circle r="5.08047196193807" cx="631.265285958399" cy="474.94152588078765" opacity="0.36167075576953267"></circle><circle r="5.699018009634819" cx="110.83314860302146" cy="310.2628519555586" opacity="0.6962012408573611"></circle><circle r="5.867829291291783" cx="118.79127416153638" cy="383.0819919500917" opacity="0.13145215416063205"></circle><circle r="2.0645757791574146" cx="167.92965776293545" cy="794.9733338400816" opacity="0.7471419217946681"></circle><circle r="4.7869445580044525" cx="720.1573055485911" cy="17.821367012842796" opacity="0.5980999376638809"></circle><circle r="5.77469602110544" cx="682.1521534298853" cy="570.6376621023024" opacity="0.300967206308073"></circle><circle r="8.559289862071775" cx="714.5261547761264" cy="218.70385029868353" opacity="0.353713904326025"></circle><circle r="9.012708915510057" cx="118.41098164670984" cy="268.2773345578303" opacity="0.4489283168842384"></circle><circle r="4.4152785894384206" cx="94.1820970305562" cy="33.805241090638944" opacity="0.2377465682330681"></circle><circle r="10.272698354277548" cx="764.2095627748585" cy="773.672882040754" opacity="0.21177074935318746"></circle><circle r="11.37025304800241" cx="719.1242064764325" cy="553.7383834896659" opacity="0.3542770923408485"></circle><circle r="7.096280081901233" cx="587.4421645124471" cy="699.2848593573606" opacity="0.42061977939657147"></circle><circle r="9.654437771716061" cx="464.9514769515603" cy="529.1506739163189" opacity="0.3455925770765662"></circle><circle r="3.7825604291261623" cx="549.0368802123323" cy="264.8455373539605" opacity="0.5786508912958227"></circle><circle r="9.647029767470055" cx="593.7314074271308" cy="574.6394712811633" opacity="0.8879089615962591"></circle><circle r="5.419248309545159" cx="260.250077165171" cy="752.7353301765572" opacity="0.8529967212697193"></circle><circle r="6.334944328372753" cx="18.240543288860696" cy="693.4287738198134" opacity="0.5230561587553657"></circle><circle r="8.732647702041376" cx="707.6532769146849" cy="473.901760457359" opacity="0.3534450872048923"></circle><circle r="8.475007587851218" cx="549.5151215227274" cy="683.0071315613059" opacity="0.7453111613353788"></circle><circle r="6.607461588522738" cx="67.0079837187346" cy="325.98248326764303" opacity="0.15392057610295784"></circle><circle r="7.944573217089946" cx="763.8238732531357" cy="223.68243979358772" opacity="0.8584108204904647"></circle><circle r="5.201053279900746" cx="589.4254043466797" cy="391.8533410153327" opacity="0.660905818457299"></circle><circle r="6.503558368290426" cx="291.1086024715561" cy="466.30768808661765" opacity="0.9957049629259186"></circle><circle r="8.763216287910138" cx="58.38254586324618" cy="19.295084913690772" opacity="0.7369079620934206"></circle><circle r="11.214466645469212" cx="88.8682422703022" cy="532.3349731269906" opacity="0.8580646146370462"></circle><circle r="7.990250140341715" cx="131.8891889890491" cy="651.9524613148392" opacity="0.8834186635001927"></circle><circle r="7.237602056050244" cx="695.0843827180604" cy="606.4959355724126" opacity="0.4107992240225008"></circle><circle r="4.670392136928018" cx="699.2781657916626" cy="755.0485620582034" opacity="0.43721384922274387"></circle><circle r="10.610702147101325" cx="397.4804516860369" cy="652.8540804531698" opacity="0.9520181541936696"></circle><circle r="4.914049600969698" cx="514.8973201169193" cy="162.4071692935546" opacity="0.15909699257882415"></circle><circle r="6.424981907598445" cx="646.4370066583767" cy="779.6084924177611" opacity="0.23661080385098707"></circle><circle r="12.281080915448943" cx="23.987711461208043" cy="296.2036137488531" opacity="0.24360726313908485"></circle><circle r="3.670878122828042" cx="586.4785148478863" cy="363.25160984715717" opacity="0.7535965037425029"></circle><circle r="4.983692388075671" cx="709.2742499408772" cy="361.77082157207815" opacity="0.9095353641378647"></circle><circle r="7.397275401387014" cx="136.91589286824882" cy="695.4432506583541" opacity="0.2738369177733896"></circle><circle r="4.50836894477422" cx="786.2220217428487" cy="666.9059132797606" opacity="0.7968593384526612"></circle><circle r="12.381531560257404" cx="625.3624498902371" cy="158.97031003883185" opacity="0.9310365870997103"></circle><circle r="7.835258916949393" cx="750.9357536318449" cy="303.8536213973874" opacity="0.1328736526056753"></circle><circle r="9.373010126572687" cx="60.57451328646266" cy="633.9211123794519" opacity="0.1766909695895059"></circle><circle r="8.488419147604981" cx="323.69702124075064" cy="364.0547265112915" opacity="0.3296407069933134"></circle><circle r="8.510471461633168" cx="157.22401351453422" cy="464.0853246035296" opacity="0.7890216817217304"></circle><circle r="5.307453330722188" cx="668.9262114687458" cy="420.1488464058757" opacity="0.9540842688773471"></circle><circle r="5.002919745801185" cx="200.8321978016328" cy="692.1291929218318" opacity="0.7566110663074976"></circle><circle r="3.1884967719748873" cx="188.7514138022959" cy="11.959020244482389" opacity="0.9277620471667415"></circle><circle r="5.370323908825839" cx="472.977595913116" cy="138.14401244135308" opacity="0.6322153552702685"></circle><circle r="8.505317698658509" cx="474.08748235638484" cy="17.319529406413128" opacity="0.5862177315099459"></circle><circle r="7.2865457453085885" cx="342.38133692188825" cy="319.9478559603" opacity="0.2139692651241662"></circle><circle r="7.746694828216766" cx="285.41088198184065" cy="665.757834702991" opacity="0.3290224354492311"></circle><circle r="9.085007561725448" cx="753.5628763330459" cy="683.4097035551586" opacity="0.10276841900417938"></circle><circle r="8.407443632237785" cx="279.22856647897004" cy="116.25589575239027" opacity="0.1135671190967884"></circle><circle r="5.285147018365755" cx="783.3266755631377" cy="611.6640710737821" opacity="0.45302069473972084"></circle><circle r="5.996001096397311" cx="168.85957821808898" cy="773.893552672676" opacity="0.18076605036990065"></circle><circle r="5.968895663168198" cx="451.02215729600357" cy="678.671731159076" opacity="0.9412783619671321"></circle><circle r="8.884256539247147" cx="103.02828766213898" cy="74.66955347324519" opacity="0.4583397764839746"></circle><circle r="8.688415344712977" cx="760.7879353776378" cy="99.91154778289831" opacity="0.4846679149471592"></circle><circle r="4.768694527471676" cx="13.088714922897712" cy="69.30828286187038" opacity="0.606981801305053"></circle><circle r="10.160131600091315" cx="379.6227682973394" cy="275.93870583815226" opacity="0.25381580531397574"></circle><circle r="7.064277232567349" cx="663.1914042106795" cy="455.8911076163138" opacity="0.7704970830663359"></circle><circle r="4.987626231149213" cx="107.26575413484184" cy="229.31125894527855" opacity="0.7104456105514558"></circle><circle r="6.441420282735446" cx="330.7889691919674" cy="548.8701548045708" opacity="0.28626785981848535"></circle><circle r="4.597756294647779" cx="406.4073644460166" cy="765.4207726446925" opacity="0.2598627443521576"></circle><circle r="6.314383542234826" cx="240.70315068170456" cy="155.33790169869877" opacity="0.6351806110637007"></circle><circle r="9.261182793401405" cx="665.9703587354636" cy="192.02218973298977" opacity="0.731364313939733"></circle><circle r="7.461898982232953" cx="699.2616863195069" cy="398.0271707450845" opacity="0.9707560329746701"></circle><circle r="8.791945076512203" cx="205.48554442418032" cy="567.0152402256614" opacity="0.8871497644310531"></circle><circle r="8.039547405636247" cx="371.52540715292736" cy="93.22325342484932" opacity="0.5939406311688542"></circle><circle r="4.230758264228239" cx="297.9534922906746" cy="634.3852242933056" opacity="0.5940723749758763"></circle><circle r="9.06679970569499" cx="298.80230750057655" cy="316.06305726534083" opacity="0.4317626113235715"></circle><circle r="6.249387474297941" cx="498.0495091769437" cy="562.6360707551463" opacity="0.9700667877992734"></circle><circle r="4.3482902348926595" cx="126.36084889285709" cy="764.9733418611452" opacity="0.6299062490626932"></circle><circle r="5.45072261551645" cx="210.06257504055995" cy="270.9526384723121" opacity="0.20298577799610404"></circle><circle r="7.656519214271361" cx="321.3280101529215" cy="611.2698985297648" opacity="0.6740769390050741"></circle><circle r="12.591448246030975" cx="566.3919152703286" cy="184.5388384748704" opacity="0.5341158691984638"></circle><circle r="7.174771494300074" cx="456.74252935880287" cy="87.46223515220785" opacity="0.5370998722453325"></circle><circle r="7.82088821284799" cx="603.6563922014146" cy="339.88459748204843" opacity="0.3366880448006869"></circle><circle r="6.6643699900025934" cx="234.22295075004274" cy="198.29602687295287" opacity="0.4734983758029001"></circle><circle r="5.979293901497892" cx="414.4960916421027" cy="82.8048760689984" opacity="0.7290194818565181"></circle><circle r="6.543343656167811" cx="257.31125657913736" cy="93.69176966784886" opacity="0.3243665497938287"></circle><circle r="7.529805823397712" cx="59.348325742283116" cy="373.7587197181467" opacity="0.2902924071478484"></circle><circle r="7.191253555205003" cx="305.5553534682096" cy="578.9901586569127" opacity="0.1753517583835053"></circle><circle r="11.943077844771551" cx="34.23938094033447" cy="575.9456810390819" opacity="0.6393795839381733"></circle><circle r="8.852314082136127" cx="665.2145755716729" cy="645.4956055955877" opacity="0.49750461133360857"></circle><circle r="6.283665544389226" cx="603.7025462405381" cy="477.52195664602556" opacity="0.5396529513903733"></circle><circle r="10.146451787150518" cx="435.0045029581028" cy="450.6492413680582" opacity="0.5561251904391639"></circle><circle r="10.53110326712012" cx="65.90706405608879" cy="241.85630636299763" opacity="0.9165447750588155"></circle><circle r="7.282197723169144" cx="164.437119151743" cy="325.29449210299634" opacity="0.6788789264204484"></circle><circle r="9.64470997385793" cx="770.7446918045413" cy="723.4188988367222" opacity="0.75374795738341"></circle><circle r="8.71005500515469" cx="652.0262103608706" cy="681.9349070920068" opacity="0.15696019588671423"></circle><circle r="9.25959276471813" cx="344.42684868315746" cy="219.037646245715" opacity="0.4315456129935046"></circle><circle r="5.784447772910565" cx="37.971117046927674" cy="99.0335285746858" opacity="0.4628531613216952"></circle><circle r="3.0965430825000446" cx="408.36678727882327" cy="788.7667961280532" opacity="0.9636255195464993"></circle><circle r="8.48058201409277" cx="95.9267254847669" cy="460.9888777194305" opacity="0.10977516847286457"></circle><circle r="4.261812069261707" cx="506.7386266060305" cy="455.58246060969793" opacity="0.12060159331493339"></circle><circle r="7.43877420732908" cx="183.45780647885903" cy="66.62752376369043" opacity="0.673929679411408"></circle><circle r="7.974291895932039" cx="388.78220928270963" cy="586.4074478922216" opacity="0.6870091835736487"></circle><circle r="4.730799995352193" cx="361.93776675157477" cy="566.4195249082119" opacity="0.9708906566850768"></circle><circle r="9.224414010906377" cx="512.7813377465138" cy="729.9250448111674" opacity="0.19098556288532792"></circle><circle r="5.305587041044309" cx="489.37521864349384" cy="631.08560714745" opacity="0.8975468760244286"></circle><circle r="10.995641421098872" cx="444.682987806823" cy="381.03970301502613" opacity="0.2933102066266956"></circle><circle r="4.908771640553342" cx="482.6437855692487" cy="787.3107417850024" opacity="0.40476129532388827"></circle><circle r="4.684704783736089" cx="229.12267231237303" cy="63.045761890344544" opacity="0.7169119576163689"></circle><circle r="5.396641755257719" cx="266.80344655470884" cy="701.8373291926733" opacity="0.9419250024843728"></circle><circle r="5.599402846020746" cx="218.39936945905475" cy="740.0772248119347" opacity="0.10571527584417209"></circle><circle r="3.6251295488116013" cx="310.73534997996694" cy="689.9815310499686" opacity="0.48700792598399656"></circle><circle r="5.117507369208533" cx="284.78602201174385" cy="375.90817832620684" opacity="0.12681473282656064"></circle><circle r="5.071802380052603" cx="273.18363185459384" cy="785.1630196745521" opacity="0.5736549993986468"></circle><circle r="4.352772638399542" cx="145.55134108762667" cy="785.0759604685584" opacity="0.4540914847234484"></circle><circle r="7.850828725369863" cx="163.97829926600838" cy="267.0076214135024" opacity="0.9010446657514085"></circle><circle r="7.1986525775537284" cx="417.8452017403031" cy="697.5727190843634" opacity="0.5585290536359071"></circle><circle r="5.385619854315485" cx="337.15750316874954" cy="179.22483405596267" opacity="0.7481663863986958"></circle><circle r="5.000798211454693" cx="555.841438971752" cy="292.79318054180874" opacity="0.8732325063845691"></circle><circle r="6.245962569090806" cx="534.1174865343877" cy="462.10723606907425" opacity="0.6017149474473902"></circle><circle r="6.055556112466886" cx="559.6482351251028" cy="407.64622818510793" opacity="0.7842522777659362"></circle><circle r="4.589644945947544" cx="118.57873844970351" cy="13.168825786551492" opacity="0.14323432264977462"></circle><circle r="11.776494075662846" cx="724.7727885135765" cy="162.09952850771546" opacity="0.2769406418422814"></circle><circle r="5.462777763356071" cx="250.35189666208993" cy="449.1887094435102" opacity="0.26199531492449213"></circle><circle r="6.041510544377033" cx="140.70386822222738" cy="49.50198558759355" opacity="0.3959964126574451"></circle><circle r="6.176031357923273" cx="164.96553320719042" cy="99.68610095851922" opacity="0.3704570338626214"></circle><circle r="5.5587967929350794" cx="717.3719824880221" cy="727.0499779042337" opacity="0.14085434544178915"></circle><circle r="6.435690581483337" cx="726.4213033990886" cy="436.5508009683886" opacity="0.5436680818957931"></circle><circle r="7.61661900027967" cx="625.2152133184603" cy="401.06326688509984" opacity="0.7593936347378283"></circle><circle r="5.473889535698325" cx="422.8637196074295" cy="489.50680947886116" opacity="0.13063026670716216"></circle><circle r="7.612051494402012" cx="302.05579119865314" cy="433.5102147842385" opacity="0.681191942095682"></circle><circle r="7.043844865587941" cx="222.53997722665895" cy="317.99698133063987" opacity="0.37387937090318835"></circle><circle r="5.748782678912568" cx="469.16037861460137" cy="761.1258108612227" opacity="0.1857725197247479"></circle><circle r="10.851649629275533" cx="567.5847825446875" cy="622.8309490212166" opacity="0.7252312410664498"></circle><circle r="6.156612279808592" cx="18.39777431950134" cy="22.453178498776108" opacity="0.9001654724831"></circle><circle r="9.495955754535979" cx="370.7555758766505" cy="369.2243806746095" opacity="0.5725988547306028"></circle><circle r="6.548956379011423" cx="509.017997560439" cy="209.64847509238282" opacity="0.6038516953854748"></circle><circle r="7.508743267002813" cx="644.0421955792832" cy="321.10973265067065" opacity="0.5094265232257613"></circle><circle r="11.009794581076102" cx="656.9363573524344" cy="278.5465998647765" opacity="0.8806585852137078"></circle><circle r="5.122289019211683" cx="552.9144497291246" cy="572.6473732263374" opacity="0.30110676262231867"></circle><circle r="8.382907116802306" cx="299.48764880869413" cy="214.21887801456052" opacity="0.22386497399266406"></circle><circle r="7.651173142042387" cx="492.01988811782996" cy="689.3788400547148" opacity="0.39615658552784916"></circle><circle r="4.1400972158821645" cx="92.47338527171044" cy="145.81003553618928" opacity="0.13014174803424775"></circle><circle r="6.965746100836022" cx="711.0686888597639" cy="641.109242281182" opacity="0.48453981181861216"></circle><circle r="4.212769425444189" cx="132.38732074691833" cy="343.97914566273715" opacity="0.5055147640635163"></circle><circle r="7.5110564114817375" cx="639.1590742562788" cy="370.5811486295063" opacity="0.7585363412314499"></circle><circle r="10.465013294272875" cx="23.06453986297391" cy="238.61362244091217" opacity="0.7297263954587854"></circle><circle r="9.03041008546077" cx="24.76917118940993" cy="774.3764970565701" opacity="0.6869425555708973"></circle><circle r="9.355805971646506" cx="344.37476589213645" cy="659.5917513650788" opacity="0.10420540789592748"></circle><circle r="10.110482868232175" cx="396.0797874405971" cy="198.36292766658278" opacity="0.55168475021896"></circle><circle r="4.338248022661595" cx="652.480879843062" cy="490.96371669756553" opacity="0.8019916547189839"></circle><circle r="10.538910456801387" cx="31.130174942631886" cy="497.7908935239811" opacity="0.21144895887860904"></circle><circle r="5.54745307921082" cx="94.11048095769256" cy="183.86963050242215" opacity="0.8118425709977848"></circle><circle r="8.794270408450135" cx="385.72240714678753" cy="505.038193038548" opacity="0.27873888100188393"></circle><circle r="9.7052632204191" cx="177.21456653698286" cy="140.23098607423668" opacity="0.8749624203518017"></circle><circle r="5.967536459982974" cx="607.5695176363382" cy="298.75951798801066" opacity="0.24918510484891776"></circle><circle r="7.68822955940274" cx="334.273087930487" cy="135.65089986223674" opacity="0.8530620988900733"></circle><circle r="4.4874787710745805" cx="205.15134487049636" cy="208.98798861088585" opacity="0.18488389311935335"></circle><circle r="4.932674349220061" cx="555.5922193344221" cy="535.4271413434932" opacity="0.8076740022966951"></circle><circle r="5.17075235697518" cx="88.29275035369469" cy="113.87516860749881" opacity="0.4828811358515903"></circle><circle r="5.460902085874697" cx="370.9500424366625" cy="12.200115166980137" opacity="0.6117884947106373"></circle><circle r="6.716951708924387" cx="35.48997535811898" cy="718.2564723479783" opacity="0.9388693761491262"></circle><circle r="4.70314882627455" cx="448.7051224336571" cy="279.41836814259796" opacity="0.6159839770625044"></circle><circle r="6.021154582513017" cx="773.4795072565639" cy="189.74515509156146" opacity="0.7045100850396884"></circle><circle r="5.156900966031677" cx="362.60295702201137" cy="42.761861105624256" opacity="0.7974109696044563"></circle><circle r="8.41800379719918" cx="535.4508912012681" cy="19.798999566957352" opacity="0.557512268718299"></circle><circle r="4.8368755655866975" cx="291.6042949554783" cy="153.32348355487593" opacity="0.7297894129247576"></circle><circle r="8.789457970655022" cx="370.46682775868516" cy="453.24866330019773" opacity="0.7882342383681886"></circle><circle r="8.07613980833757" cx="213.8412094506244" cy="123.90531267114255" opacity="0.25874804708034704"></circle><circle r="12.064639373884452" cx="775.8524601068275" cy="400.97045593642616" opacity="0.38284579524514883"></circle><circle r="6.857289064321408" cx="383.1030711883535" cy="125.6124295675996" opacity="0.5727144809170676"></circle><circle r="7.674593067266778" cx="697.57781613692" cy="111.78849677963098" opacity="0.5353106071285129"></circle><circle r="5.090358819236663" cx="745.5946263660203" cy="374.77492002338937" opacity="0.636899880580796"></circle><circle r="7.094759019420898" cx="452.9909393425739" cy="643.8077818588599" opacity="0.3632252405213984"></circle><circle r="8.676845927041086" cx="445.6170660742148" cy="45.880161017827454" opacity="0.6156396173027963"></circle><circle r="5.939827399453705" cx="625.1107027631798" cy="217.57068047462954" opacity="0.4888802587669093"></circle><circle r="6.539541128840471" cx="157.17984629974714" cy="297.122843115435" opacity="0.4319325887060613"></circle><circle r="5.363382228286672" cx="196.78444541120874" cy="412.91358874167315" opacity="0.7508038852145347"></circle><circle r="6.080802313536383" cx="479.7989974092374" cy="182.81689067391997" opacity="0.20902709843909045"></circle><circle r="4.100136930176188" cx="785.0567477764669" cy="290.47380336501" opacity="0.9154682034628753"></circle><circle r="10.282233926432312" cx="369.4472620029708" cy="740.7013077403312" opacity="0.14870938630083"></circle><circle r="8.902614863709179" cx="674.6946946511031" cy="145.5485169110193" opacity="0.6860935979836333"></circle><circle r="5.412075397803309" cx="56.41988622529893" cy="149.366869978909" opacity="0.40148330105401964"></circle><circle r="6.074485215260742" cx="247.65918998015601" cy="366.3019977782805" opacity="0.4454430190061597"></circle><circle r="9.488094064874527" cx="205.60347413500725" cy="776.5544253244924" opacity="0.6461584030918218"></circle><circle r="9.878444298683448" cx="29.511975903695" cy="186.15620207082355" opacity="0.7774619722961548"></circle><circle r="7.695342841173662" cx="458.708339838067" cy="723.3248485905002" opacity="0.6778507975545648"></circle><circle r="5.89273427100636" cx="416.2002718338149" cy="112.8867972620187" opacity="0.7460992321203429"></circle><circle r="5.256833239855183" cx="756.7377967568033" cy="584.8160452382627" opacity="0.814556267964143"></circle><circle r="9.307353380015524" cx="775.6712843829615" cy="530.7689645006458" opacity="0.9104396342961225"></circle><circle r="6.67164315329612" cx="420.5646975041266" cy="738.5847404495692" opacity="0.171221739321054"></circle><circle r="10.80336338748949" cx="259.68998398497104" cy="295.5762534236864" opacity="0.5076237799331171"></circle><circle r="9.238150789380441" cx="526.7813777098313" cy="414.71936777382626" opacity="0.9948821140118792"></circle><circle r="8.456007493647434" cx="128.63043507372174" cy="108.51026786727446" opacity="0.8877910896889977"></circle><circle r="8.040637876769672" cx="670.2484595905573" cy="236.82154178929127" opacity="0.429529036890281"></circle><circle r="8.673814001126285" cx="334.7680578531211" cy="264.8887750826594" opacity="0.38287872376447607"></circle><circle r="7.167591022303005" cx="528.8204813863784" cy="59.49843426172872" opacity="0.7746002069711007"></circle><circle r="6.932038103630158" cx="705.0068378126907" cy="686.5884880273912" opacity="0.549466025905731"></circle><circle r="5.2196655054372485" cx="560.7425435058026" cy="473.1562010551444" opacity="0.5233436595045962"></circle><circle r="8.262475604383674" cx="138.46129989564577" cy="207.89435529321767" opacity="0.7329789281990748"></circle><circle r="5.5173524427774305" cx="91.77805664488568" cy="706.3089218359753" opacity="0.7320530488396308"></circle><circle r="5.474429160915459" cx="252.92639911766452" cy="18.181221393247885" opacity="0.435874180836859"></circle><circle r="7.718098128612623" cx="514.0230691202089" cy="514.1477068937221" opacity="0.44228338064252737"></circle><circle r="10.941865752672328" cx="506.0470349126124" cy="372.12540993386426" opacity="0.19489123705135952"></circle><circle r="8.15191450199731" cx="293.05978566790253" cy="68.98273519669749" opacity="0.5020748492367354"></circle><circle r="8.111999267638332" cx="673.4443433987446" cy="350.7236809118761" opacity="0.9083670100171414"></circle><circle r="8.701947763000122" cx="516.3034209599977" cy="600.405622527769" opacity="0.7502708857166661"></circle><circle r="10.58429651614156" cx="445.6513976971274" cy="205.03454858074545" opacity="0.2130256848766547"></circle><circle r="7.181334975790945" cx="561.3041058199562" cy="729.2377525554938" opacity="0.8486645285757223"></circle><circle r="7.6107539909801005" cx="456.54492099052874" cy="334.2976290142877" opacity="0.10054285560649132"></circle><circle r="4.4087895552428265" cx="658.4305146068668" cy="520.5258611955893" opacity="0.6794205139490829"></circle><circle r="4.255033998746185" cx="711.485445360293" cy="83.07640051926347" opacity="0.5254996397711444"></circle><circle r="8.567658977907287" cx="307.2545453095685" cy="17.273448845282775" opacity="0.15678711084641928"></circle><circle r="3.3697528631512355" cx="118.17982906308562" cy="789.6493025540989" opacity="0.8235592650095493"></circle><circle r="8.635632383365735" cx="698.6316236304524" cy="314.4760647872881" opacity="0.9499045592012826"></circle><circle r="7.031868895199565" cx="554.538599586974" cy="376.9905208588484" opacity="0.12418195645668481"></circle><circle r="6.832712125807126" cx="528.7708880637251" cy="775.7467909925608" opacity="0.15388358584493084"></circle><circle r="5.017313940118661" cx="351.5254249723698" cy="523.0039131643423" opacity="0.367295353880122"></circle><circle r="9.562312062230559" cx="415.4986155922016" cy="539.9523359366058" opacity="0.6784976469234927"></circle><circle r="3.5418608954848283" cx="697.8894381632964" cy="792.8911633439944" opacity="0.8333082749981381"></circle><circle r="7.607496595720038" cx="61.271786855366834" cy="427.7775895814322" opacity="0.3556257944820649"></circle><circle r="8.031668163486467" cx="476.6514881431286" cy="480.5080122265996" opacity="0.6357282731608004"></circle><circle r="5.212468264180907" cx="207.69640719431285" cy="647.6624743110937" opacity="0.46742150317684317"></circle><circle r="7.1266535988394555" cx="624.5030833112615" cy="614.5034605587698" opacity="0.4148157120631323"></circle><circle r="4.681929527776102" cx="70.52402934354984" cy="69.34764991487081" opacity="0.21919003256518427"></circle><circle r="11.730596877236348" cx="212.64121269992754" cy="485.8997322373593" opacity="0.3944675984919581"></circle><circle r="5.372292927158072" cx="779.7438396493516" cy="43.04351937641442" opacity="0.3768111791142441"></circle><circle r="5.734277353417518" cx="403.0046792255083" cy="239.97817300961987" opacity="0.9975051797032033"></circle><circle r="7.02041999176112" cx="255.66610193586044" cy="230.11227217620637" opacity="0.4028250131122444"></circle><circle r="9.097272128993065" cx="611.6223385177909" cy="262.8070943258596" opacity="0.9055749574321355"></circle><circle r="5.093177174792659" cx="207.65461329171566" cy="37.4004591924426" opacity="0.3828668937876889"></circle><circle r="5.945171950998934" cx="24.393959552919192" cy="389.5429881094689" opacity="0.8033480633174392"></circle><circle r="8.740768246525679" cx="619.8991481003834" cy="706.7107884363091" opacity="0.9458255492250062"></circle><circle r="10.882219855292817" cx="648.3674384110188" cy="24.436533789677743" opacity="0.9980883159202597"></circle><circle r="7.403001932441068" cx="201.02254796630118" cy="172.39015003103376" opacity="0.3766792056280598"></circle><circle r="8.553916438174731" cx="775.9960430826586" cy="142.50484611751293" opacity="0.24514959540313003"></circle></g></svg>